<svg id="Layer_1" data-name="Layer 1" xmlns="http://www.w3.org/2000/svg" viewBox="0 0 1080 1080"><defs><style>.cls-1{fill:#d81324;}</style></defs><path class="cls-1" d="M828.39,134.6c0-50.52-21.32-87.9-67.61-108.57-14.19-6.33-31-9.23-46.7-9.33-114.62-.76-229.25-.53-343.88-.37-66.69.09-115,48.62-115.06,115.49q-.13,342.29,0,684.57,0,65.68,0,131.37c0,63.49,33.48,104.79,95.78,118.23a13.22,13.22,0,0,1,2.77,1.32H731.43c5.85-1.6,11.73-3.08,17.54-4.81,45.37-13.48,77.51-55.21,79.15-102.73.13-3.76.19-7.53.19-11.29Q828.33,541.55,828.39,134.6ZM453,119.78c4.79-4.09,12-7.42,18.16-7.5,47.2-.61,94.41-.55,141.61-.2,14.71.1,24.31,10.19,24.31,23.63,0,13.77-10.11,23.72-25.29,23.92-23.25.31-46.52.08-69.78.08-23.6,0-47.2.14-70.8-.07-10.87-.1-19-5.07-23.24-15.43C444.28,135,445.79,126,453,119.78Zm-58,493.1c-.38,14.94-13.49,26.5-28.7,26.77-15.52.28-28.78-10.92-30.34-25.71a97.24,97.24,0,0,1-.54-10c0-39,0-78-.06-117,0-13.13,4.69-23.5,16.59-29.78,18.61-9.83,42.22,2.92,43,24,.85,21.84.19,43.74.19,65.6h0C395.18,568.83,395.6,590.87,395,612.88ZM541.41,971.6a47.63,47.63,0,1,1,48.2-48A47.73,47.73,0,0,1,541.41,971.6Zm109.69-286c-7.25,1.3-14.84.73-22.27,1-2,.07-4.06,0-6.7,0v5.59c0,17.44-.57,34.91.15,52.32.79,19-5.44,32.74-24.57,38.71H586.3c-19.15-5.84-25.5-19.51-24.75-38.5.69-17.55.14-35.15.14-52.72v-5H521.45v5.51q0,29.22,0,58.43c0,9.25-2.22,17.86-9.54,23.85-4.38,3.59-10,5.7-15.05,8.48H485.46c-4.65-2.56-9.72-4.57-13.85-7.79a25.36,25.36,0,0,1-9.95-20.23c-.32-20.76-.43-41.53-.61-62.3,0-1.88,0-3.76,0-6.35-6.87,0-13.32-.07-19.76,0-13.79.18-24.32-5.49-30.55-17.85a30.67,30.67,0,0,1-3.21-13.18c-.22-64.54-.17-129.07-.18-193.6a17.63,17.63,0,0,1,.27-2.09h268c.08,1.63.23,3.16.23,4.7,0,62.47-.21,124.94.14,187.41C676.09,670.73,664.17,683.29,651.1,685.63ZM405.94,448.76c1.84-49.82,26.82-84.27,69.05-108.1L456.16,306c-.67-1.25-1.85-2.55-1.82-3.79.05-1.78.52-4.37,1.71-5.06s3.66.24,5.2,1.12c1.07.61,1.54,2.32,2.23,3.57l19.26,35.31c39.2-16.25,78.31-16.28,117.69,0L619.6,302c.68-1.25,1.12-2.94,2.19-3.6,1.5-.95,4.27-2.09,5.09-1.42,1.28,1,2.36,3.91,1.81,5.35-1.58,4.1-4,7.87-6.13,11.77l-14.37,26.57c42,23.83,66.87,58.39,68.82,108.1ZM731.16,636.49c-18.67,9.79-42.2-3-43-24.06-.83-22-.19-44-.19-66.09h0c0-21.87-.43-43.75.15-65.61.4-14.91,13.57-26.47,28.79-26.71,15.65-.24,28.73,10.84,30.27,25.74a91.1,91.1,0,0,1,.52,9.48c0,39.16,0,78.32,0,117.47C747.79,619.82,743.1,630.23,731.16,636.49Z"/><path class="cls-1" d="M479.9,377.31c-5.89-.06-11,5.12-11.09,11.22a11.19,11.19,0,0,0,10.88,11.37A11.53,11.53,0,0,0,491.14,389,11.72,11.72,0,0,0,479.9,377.31Z"/><path class="cls-1" d="M603.3,377.31A11.71,11.71,0,0,0,592,388.94a11.55,11.55,0,0,0,11.42,11,11.2,11.2,0,0,0,10.91-11.34C614.31,382.47,609.2,377.27,603.3,377.31Z"/></svg>