<svg id="Layer_1" data-name="Layer 1" xmlns="http://www.w3.org/2000/svg" viewBox="0 0 1080 1080"><defs><style>.cls-1{fill:#d81324;}</style></defs><path class="cls-1" d="M328.7,869c0-21.19-.7-42.4.13-63.56,2.66-67.26,60.65-123.57,135.18-131.76,3.51-.38,8.08,2.73,11.14,5.39,39.63,34.39,87.81,34.54,127.19.46,3.37-2.92,8.52-6.17,12.44-5.72,67.58,7.81,125.44,55.86,133.55,122.13,2.67,21.87,1,44.28,1.09,66.45.12,25.13.55,50.28-.38,75.38-.21,5.5-4.24,13.1-8.83,15.85-39.72,23.79-79.4,47.75-120.21,69.59-53.84,28.81-109,28.54-162.74-.43-40.74-22-80.47-45.8-120.24-69.5-4.26-2.54-7.92-9.67-8.11-14.81-.87-23.13-.38-46.31-.38-69.47Z"/><path class="cls-1" d="M393.13,658.32c-15.26,11-31,20.49-44.42,32.56-32.83,29.56-49.08,67.07-49,111.47.08,42.33,0,84.67,0,128.91-5.28-2.65-9.17-4.37-12.83-6.48Q171,858,55.27,791c-8.49-4.92-16.08-11.35-24.35-16.67-18.6-12-23.1-28.06-18.43-49.45,14.24-65.24,71.8-106.58,132.3-113.78,3.93-.47,9.13,2.7,12.5,5.62,39.49,34.17,87.58,34.15,127.36.16,3.92-3.35,10.41-6,15.32-5.47C334.82,615.22,369.22,633,393.13,658.32Z"/><path class="cls-1" d="M778.57,931c0-43,.32-84.19-.18-125.42-.16-13.21-1-26.74-4-39.53C764.21,722.93,738,691.5,700.4,669c-4.64-2.78-9.41-5.35-14.09-8.05-.4-.23-.63-.75-1.88-2.3,26.78-28.06,60-42.85,98-47.75,3.12-.4,7.23,2.37,10,4.7,43,35.84,87.51,35.88,129.39.33,3.31-2.81,8.76-5.25,12.8-4.71,68.38,9,126.36,58.39,133,128,1,10.21-.65,18.44-9,24.8-11.31,8.68-21.84,18.69-34,25.82-78.24,45.72-156.84,90.82-235.35,136.07C786.41,927.54,783.3,928.77,778.57,931Z"/><path class="cls-1" d="M643.2,527.1c-1.59,45.28-11.64,82.17-38.52,113.07-37.4,43-92.66,44.46-129.78,1.24-39.54-46-49.84-100.1-32.17-157.83,13.61-44.45,54.54-69.65,101.91-66.76,49.14,3,84.57,32.34,94.37,78.91C641.53,507.72,642.3,520.08,643.2,527.1Z"/><path class="cls-1" d="M325.35,465.77c-1.41,40-10.5,74.75-33.42,104.92-39.56,52.06-101.26,52.9-140.92,1-33.6-44-41.7-94-27.51-146.92,12.38-46.13,54.19-73.71,103.4-71.05,50,2.7,87.1,36.24,95.64,86.86C324.09,449.76,324.63,459.13,325.35,465.77Z"/><path class="cls-1" d="M752.68,458.13c2.62-10.1,5.22-30,12.89-47.69,16.67-38.51,56-59.87,98.46-56.65,45.75,3.48,79.93,29.12,91,71.74,14.15,54.66,5.26,105.91-31,150.2-37.56,45.86-93.49,46-132.47,1.13C764.42,545.66,754.4,508.11,752.68,458.13Z"/><path class="cls-1" d="M541.49,59.93c2.22,5.16,4.85,10.19,6.61,15.51,10,30.39,20.21,60.73,29.5,91.34,3,9.84,7.92,13,17.94,12.82,33.51-.53,67-.31,100.54,0,4,0,7.94,2.34,11.91,3.59-2.46,3.79-4.12,8.66-7.52,11.19-26.08,19.4-52.16,38.86-79,57.18-10.52,7.18-12.26,13.95-8.1,25.67,10.87,30.61,20.5,61.67,30.27,92.66,1.19,3.78.23,8.23.27,12.38-4.3-1.19-9.36-1.31-12.77-3.74-27.31-19.39-54.54-38.92-81.27-59.09-8.18-6.17-13.83-5.89-21.93.23-26.72,20.19-54,39.63-81.29,59.07-3.25,2.31-7.78,2.81-11.72,4.15-.21-4.49-1.68-9.37-.42-13.4,9.82-31.49,19.7-63,30.61-94.1,3.81-10.85,1.4-16.77-7.78-23.14-27.11-18.81-53.65-38.45-80.2-58.06-3.2-2.36-5-6.55-7.52-9.9,4.18-1.61,8.35-4.58,12.55-4.63,33-.38,66.05-.68,99.06.06,11.49.25,16.44-4,19.67-14.65,9.25-30.62,19.49-60.94,29.52-91.33,1.59-4.81,4.11-9.31,6.2-14Z"/><path class="cls-1" d="M223.81,28.45c7.45,22.76,15.94,45.25,22,68.37,4.09,15.58,11.43,21.24,27.63,20,19.61-1.55,39.43-.45,59.16-.29,4.54,0,9.07.92,18.19,1.92-7,6-10.33,9.28-14,12-17.89,13.12-35.58,26.54-54,38.93-8.59,5.78-9.9,11.49-6.5,20.9,7.38,20.37,13.68,41.13,20.31,61.77,1.43,4.48,2.36,9.12,4.68,18.2-8.09-4.44-12.67-6.41-16.64-9.24C267,248.38,249.09,236,232.11,222.57c-8.63-6.86-14.65-6.3-23,.3-17,13.42-34.9,25.75-52.54,38.38-3.73,2.68-7.93,4.72-15.87,9.38,2.05-9,2.76-13.58,4.15-17.95,6.55-20.67,12.74-41.47,20.18-61.81,3.64-10,2.37-15.85-6.79-21.93-18.06-12-35.26-25.26-52.74-38.1-3.77-2.77-7.2-6-14.42-12,8.74-1.17,13.11-2.23,17.48-2.27,22.69-.18,45.39-.58,68.06.12,9.71.3,13.87-3.27,16.52-12.29,6.26-21.26,13.47-42.24,20.45-63.28,1.47-4.43,3.59-8.65,5.42-13Z"/><path class="cls-1" d="M727.19,118.34c9.2-1,13.69-1.82,18.19-1.85,22.19-.14,44.39-.59,66.55.16,10.12.35,14.94-2.77,17.77-12.71,6.07-21.3,13.39-42.25,20.37-63.29,1.46-4.38,3.68-8.5,7.34-16.79,4,10.31,6.71,16.4,8.8,22.69,5.91,17.76,12.36,35.39,17.07,53.47,3.26,12.56,9,17.53,22.46,16.72,20.63-1.23,41.39-.38,62.1-.27A27.43,27.43,0,0,1,983.5,121c-3.6,3.29-6.93,6.93-10.83,9.8-18.24,13.46-36.43,27-55.09,39.87-6.93,4.78-8.31,9.47-5.58,17.26,7.31,20.92,14,42.06,20.71,63.17,1.57,4.91,2.47,10,4.74,19.5-7.85-4.51-12-6.46-15.73-9.1-18.45-13.17-37.07-26.13-55-40-7.28-5.64-12.29-5.23-19.31.16-17.59,13.49-35.74,26.25-53.74,39.2-3.81,2.74-8,5-16,10,1.55-8.6,1.88-13.08,3.19-17.25,6.36-20.2,12.29-40.58,19.76-60.38,4.31-11.45,3.26-18.42-7.78-25.46-17.83-11.38-34.48-24.61-51.54-37.18C737.64,127.78,734.33,124.51,727.19,118.34Z"/></svg>