<svg id="Layer_1" data-name="Layer 1" xmlns="http://www.w3.org/2000/svg" viewBox="0 0 1080 1080"><defs><style>.cls-1{fill:#d81324;}</style></defs><path class="cls-1" d="M631.21,669.11a12.37,12.37,0,0,1-3.65-3l-253-.2c3.85-6.48,10.44-5,16.11-5,30.52-.39,61-.17,91.56-.18,42.45,0,84.9-.1,127.35.09,6.23,0,12.69-.85,18.47,2.62a16.07,16.07,0,0,1,1.87,2.69A17.32,17.32,0,0,1,631.21,669.11Z"/><path class="cls-1" d="M692.75,665.93a13.05,13.05,0,0,1-10,4.77c-15,.62-30,.58-45,0a14.61,14.61,0,0,1-6.51-1.62,12.37,12.37,0,0,1-3.65-3h2.34Z"/><path class="cls-1" d="M900.44,777.43H711.38a18.91,18.91,0,0,1-18.91-19q.1-36.86.22-73.71a18.92,18.92,0,0,1,18.88-18.86l172.89-.34c19.63.11,39.27.47,58.89.24,10.95-.12,18.1-7.3,19.27-18.28A99.57,99.57,0,0,0,963,637q0-287.78,0-575.54c0-3.51,0-7-.31-10.51-.66-7.86-3.86-13.87-11.4-16.54A15.69,15.69,0,0,1,948.48,33c-3.36-2-7.25-1.15-10.89-1.15-37.2.05-74.4.31-111.6.32q-346.41,0-692.81,0c-23.16,0-28.73,5.49-28.73,28.4q0,288.56,0,577.11c0,22.35,5.73,28.09,27.92,28.1l223.22.1a18.9,18.9,0,0,1,18.9,19q-.08,36.83-.17,73.66a18.91,18.91,0,0,1-18.91,18.87H179.55a75.1,75.1,0,0,0-75.11,75.1V973.17a75.12,75.12,0,0,0,75.12,75.12H900.44a75.12,75.12,0,0,0,75.12-75.12V852.54A75.11,75.11,0,0,0,900.44,777.43ZM216.2,591.1c-4.14,0-8.35.66-12.44-.46a12.57,12.57,0,0,0-1.92-.39c-13.8-1.52-21.94-9.09-22.83-21.71-.42-5.94-.15-11.93-.15-17.89q0-206.94,0-413.88c0-21.66,8.16-29.57,30.87-29.57q317-.08,634,0c.93,0,1.86.09,2.79.16.38,0,.77,0,1.14,0,15.76.26,23.19,6.19,25.34,20.28.74,4.87.59,9.8.59,14.71q.06,206.27,0,412.54c0,31-5.72,36.23-38.47,36.23Q525.64,591.14,216.2,591.1ZM721.4,909.34c-3.87,1.87-8,1.66-12.16,1.66H192.91c-1.59,0-3.18,0-4.76-.07-10.07-.7-16.8-6.76-16.58-14.89.23-8.6,6.35-13.77,17-13.78q87.63-.12,175.28,0h343c3.49,0,7,0,10.47.14,7.52.35,11.65,4.87,12.88,11.79C731.47,901.37,727.78,906.27,721.4,909.34Zm143.7,30a43.07,43.07,0,0,1-42.49-43.39c.1-24,19-42.58,43.07-42.46a42.88,42.88,0,0,1,42.74,43.06C908.21,920,888.45,939.55,865.1,939.33Z"/><path class="cls-1" d="M722.58,354.65c14.56,0,29.12-.06,43.68,0,13.21.07,17.9,4.63,18,17.5q.13,24.36,0,48.73c-.08,11.69-4.59,16.86-16,17q-45.78.4-91.55,0c-11.39-.09-16.33-5.26-16.5-16.68q-.36-24.78,0-49.56c.15-11.9,5.2-16.83,17.05-16.94C692.34,354.55,707.46,354.65,722.58,354.65Z"/><path class="cls-1" d="M721.7,220c12.32,0,24.64-.13,36.95,0,9.33.13,14.68,4.64,15.2,12.25s-4.23,13.55-13.6,13.75q-38.6.81-77.23,0c-9.35-.2-13.81-5.79-13.44-13.79.35-7.57,5.67-12,15.16-12.19C697.06,219.87,709.38,220,721.7,220Z"/><path class="cls-1" d="M722.21,275.46c12,0,24.07-.11,36.1,0,9.73.12,15.31,4.85,15.57,12.73.25,7.57-4.63,13.17-14.09,13.37q-37.75.79-75.53.07c-10.06-.19-14.9-5.59-14.7-13.68.2-7.87,5.66-12.37,15.71-12.49C697.58,275.35,709.89,275.46,722.21,275.46Z"/><path class="cls-1" d="M452.4,180.41h83.22a0,0,0,0,1,0,0v74.06a9.17,9.17,0,0,1-9.17,9.17H452.4a0,0,0,0,1,0,0V180.41A0,0,0,0,1,452.4,180.41Z" transform="translate(988.02 444.04) rotate(-180)"/><path class="cls-1" d="M254.51,180.41h74.06a9.17,9.17,0,0,1,9.17,9.17v74.06a0,0,0,0,1,0,0H254.51a0,0,0,0,1,0,0V180.41A0,0,0,0,1,254.51,180.41Z"/><rect class="cls-1" x="352.19" y="180.41" width="83.22" height="83.22"/><path class="cls-1" d="M254.51,390.54h74.06a9.17,9.17,0,0,1,9.17,9.17v74.06a0,0,0,0,1,0,0H254.51a0,0,0,0,1,0,0V390.54A0,0,0,0,1,254.51,390.54Z"/><path class="cls-1" d="M450.48,392.45h83.22a0,0,0,0,1,0,0v74.06a9.17,9.17,0,0,1-9.17,9.17H450.48a0,0,0,0,1,0,0V392.45A0,0,0,0,1,450.48,392.45Z" transform="translate(984.19 868.13) rotate(-180)"/><rect class="cls-1" x="352.8" y="392.45" width="83.22" height="83.22" transform="translate(788.82 868.13) rotate(-180)"/><path class="cls-1" d="M261.23,285.47h76.5a0,0,0,0,1,0,0V368.7a0,0,0,0,1,0,0h-76.5a6.72,6.72,0,0,1-6.72-6.72V292.19A6.72,6.72,0,0,1,261.23,285.47Z"/><path class="cls-1" d="M458.56,285.47h77.06a0,0,0,0,1,0,0V368.7a0,0,0,0,1,0,0H458.56a6.16,6.16,0,0,1-6.16-6.16v-70.9a6.16,6.16,0,0,1,6.16-6.16Z" transform="translate(988.02 654.17) rotate(-180)"/><rect class="cls-1" x="352.19" y="285.47" width="83.22" height="83.22"/></svg>