<svg id="Layer_1" data-name="Layer 1" xmlns="http://www.w3.org/2000/svg" viewBox="0 0 1080 1080"><defs><style>.cls-1{fill:#d81324;}</style></defs><path class="cls-1" d="M168.43,104.74c0-11.75-.62-22.24.11-32.64,2.31-32.49,27.85-55,62.87-55,81-.2,162-.07,243-.07,118.7,0,237.45,1.83,356.09-.77,58.7-1.29,87.37,29.83,78.78,88.53ZM539.51,32a29.54,29.54,0,1,0,29.35,29.71A29.73,29.73,0,0,0,539.51,32Z"/><path class="cls-1" d="M173.12,963.91H911.55c13.4,59.69-23.64,89.49-69.87,89.09q-294.87-2.55-589.75,0C194.14,1053.63,164.42,1024.44,173.12,963.91Zm368.72,73.27v.24c4.32,0,8.66.15,13,0,20-.79,33-13,32.55-30.36-.43-16.75-13-28.22-32.12-28.87-9.87-.33-19.84-.67-29.64.29-16.16,1.57-27.79,14.62-26.87,30,1,16.39,10.42,26,26.43,28.61C530.59,1037.93,536.27,1037.18,541.84,1037.18Z"/><path class="cls-1" d="M620.78,506.35c2-19.38-9.2-43.64-22.89-49.38,0,2.67,0,5.19,0,7.72-.11,9.61-6.13,16.16-14.71,16s-14-6.48-14.1-16c0-6.35,0-12.69,0-19.29H550c0,7.19.16,14.19,0,21.19a14.37,14.37,0,0,1-28.73,0c-.12-2.72,0-5.44,0-8.16v-12.9H502c0,7,.06,13.51,0,20.05-.1,8.74-5.95,14.95-14.06,15.09s-14.48-6.22-14.72-15c-.08-2.93,0-5.85,0-9.92-16.84,13.62-24.2,30-23.15,50.58Z"/><path class="cls-1" d="M627.78,535.5q-75.81,0-151.63,0-17,0-34.07,0c-6.11,0-10.89,2.5-13.7,8-5,9.87,2.22,20.62,14,20.65,31,.07,62.07,0,93.1,0h31.19c20.79,0,41.59.06,62.38,0,9.54,0,16-7,15.1-15.91C643.37,540.43,637.12,535.5,627.78,535.5Z"/><path class="cls-1" d="M450.5,593.27c-2.81,18.37,5.84,28.52,24.06,28.52h122c18.23,0,26.86-10.12,24.08-28.52Z"/><path class="cls-1" d="M165.67,119V947.85H905.49V119ZM268.19,314.17c.32-21.86,11.38-32.83,33.35-33.14q40.75-.55,81.5,0c20.4.26,33.23,12,33.31,29.46s-12.84,29.3-33.09,29.72c-17.8.37-35.62.08-55.82.08,0,20.37.31,38.21-.08,56-.44,20.13-12.55,33.09-29.93,32.88s-29-13.15-29.25-33.53C267.85,368.51,267.8,341.33,268.19,314.17ZM382.86,785.48c-27.16.34-54.34.39-81.5,0Q268.6,785,268.19,752.1q-.57-40.74,0-81.5c.26-20.36,12-33.23,29.45-33.31s29.31,12.78,29.74,33.07c.37,17.8.07,35.62.07,55.85,20.34,0,38.17-.29,56,.08,20.2.43,33.1,12.43,32.92,29.87S403.23,785.22,382.86,785.48Zm267-191.87c.78,12.92-1.11,25.25-9,36-10.15,13.88-23.94,20.86-41.07,21-21.6.14-43.2,0-64.81,0q-31.2,0-62.41,0c-30.15-.05-51.36-21.2-51.48-51.29a7.69,7.69,0,0,1,0-1c1-6.65-1.31-10.89-7.05-15.34-23-17.83-21.09-52.85,3.19-68.9,3.17-2.09,4-4.28,3.91-7.77-1-28.13,9-51.65,30.42-70a80.78,80.78,0,0,1,52.27-19.92q31.67-.56,63.36,0c44.87.74,82.19,38.31,82.51,83.24.05,7.62,1.64,12.56,8.11,17.84,22.15,18.06,19.85,52.05-3.89,67.93C650.66,587.68,649.69,589.94,649.91,593.61ZM802.32,751.39c-.29,23-11.27,33.83-34.35,34.1q-39.83.46-79.66,0C667,785.25,653.59,773,654.14,755c.53-17.34,13.39-28.4,34.05-28.73,17.27-.28,34.55-.06,54.86-.06,0-19.62-.23-37.38.07-55.13.34-20.61,11.57-33.42,29-33.79,18-.39,30,12.9,30.23,34.44C802.62,698.28,802.66,724.84,802.32,751.39Zm0-355.5c-.27,20.34-12.1,33.25-29.5,33.31s-29.12-12.87-29.71-33.11c-.27-9.25-.05-18.52-.06-27.78v-28c-20.37,0-38.2.3-56-.08-20.19-.44-33.06-12.47-32.87-29.92s13.05-29,33.48-29.27c27.17-.33,54.34-.38,81.51,0,21.85.31,32.86,11.39,33.18,33.34Q802.9,355.14,802.31,395.89Z"/></svg>