<?xml version="1.0" encoding="utf-8"?>
<!-- Generator: Adobe Illustrator 24.3.0, SVG Export Plug-In . SVG Version: 6.00 Build 0)  -->
<svg version="1.1" id="Layer_1" xmlns="http://www.w3.org/2000/svg" xmlns:xlink="http://www.w3.org/1999/xlink" x="0px" y="0px"
	 viewBox="0 0 1080 1080" style="enable-background:new 0 0 1080 1080;" xml:space="preserve">
<style type="text/css">
	.st0{fill:#D81324;}
	.st1{fill:#FFFFFF;}
</style>
<g>
	<path d="M352.14,1610.71c-0.55,0-1.02-0.2-1.41-0.59c-0.39-0.39-0.59-0.86-0.59-1.41c0-0.55,0.2-1.02,0.59-1.41
		c0.39-0.39,0.86-0.59,1.41-0.59c0.55,0,1.02,0.2,1.41,0.59c0.39,0.39,0.59,0.86,0.59,1.41c0,0.55-0.2,1.02-0.59,1.41
		C353.16,1610.52,352.69,1610.71,352.14,1610.71z M362.14,1610.71c-0.55,0-1.02-0.2-1.41-0.59c-0.39-0.39-0.59-0.86-0.59-1.41
		c0-0.55,0.2-1.02,0.59-1.41c0.39-0.39,0.86-0.59,1.41-0.59c0.55,0,1.02,0.2,1.41,0.59c0.39,0.39,0.59,0.86,0.59,1.41
		c0,0.55-0.2,1.02-0.59,1.41C363.16,1610.52,362.69,1610.71,362.14,1610.71z M351.29,1594.71l2.4,5h7l2.75-5H351.29z
		 M350.34,1592.71h14.75c0.38,0,0.67,0.17,0.88,0.51c0.2,0.34,0.21,0.69,0.02,1.04l-3.55,6.4c-0.18,0.33-0.43,0.59-0.74,0.78
		c-0.31,0.18-0.65,0.27-1.01,0.27h-7.45l-1.1,2h12v2h-12c-0.75,0-1.32-0.33-1.7-0.99c-0.38-0.66-0.4-1.31-0.05-1.96l1.35-2.45
		l-3.6-7.6h-2v-2h3.25L350.34,1592.71z M353.69,1599.71h7H353.69z"/>
</g>
<g>
	<path class="st0" d="M631.21,669.11c-1.34-0.71-2.56-1.68-3.65-2.96c-84.34-0.06-168.68-0.13-253.02-0.2
		c3.85-6.48,10.44-4.96,16.11-5.03c30.52-0.39,61.04-0.17,91.56-0.18c42.45-0.01,84.9-0.1,127.35,0.09
		c6.23,0.02,12.69-0.85,18.47,2.62c0.74,0.87,1.36,1.76,1.87,2.69C630.44,667.1,630.87,668.1,631.21,669.11z"/>
	<path class="st0" d="M692.75,665.93c-2.61,3.16-6,4.6-10.05,4.77c-15,0.62-29.99,0.58-44.98,0.03c-2.39-0.08-4.57-0.58-6.51-1.62
		c-1.34-0.71-2.56-1.68-3.65-2.96c0.78,0,1.56-0.01,2.34-0.01C650.85,666.07,671.8,666.01,692.75,665.93z"/>
	<path class="st0" d="M900.44,777.43H711.38c-10.47,0-18.95-8.5-18.92-18.97c0.07-24.57,0.15-49.14,0.22-73.71
		c0.03-10.41,8.47-18.84,18.88-18.86c57.63-0.12,115.26-0.22,172.89-0.34c19.63,0.11,39.27,0.47,58.89,0.24
		c10.95-0.12,18.1-7.3,19.27-18.28c0.37-3.48,0.36-7.01,0.36-10.51c0.01-191.85,0.01-383.7,0-575.54c0-3.51-0.02-7.02-0.31-10.51
		c-0.66-7.86-3.86-13.87-11.4-16.54c-0.98-0.35-1.9-0.84-2.79-1.37c-3.37-1.99-7.25-1.15-10.89-1.15
		c-37.2,0.05-74.4,0.31-111.6,0.32c-230.94,0.03-461.87,0.01-692.81,0.02c-23.16,0-28.73,5.49-28.73,28.4
		c-0.01,192.37-0.01,384.74,0,577.11c0,22.35,5.73,28.09,27.92,28.1c74.41,0.04,148.82,0.07,223.22,0.1
		c10.46,0,18.93,8.5,18.91,18.96c-0.06,24.55-0.11,49.11-0.17,73.66c-0.02,10.43-8.49,18.87-18.92,18.87H179.55
		c-41.48,0-75.11,33.63-75.11,75.11v120.64c0,41.49,33.63,75.12,75.12,75.12h720.89c41.49,0,75.12-33.63,75.12-75.12V852.54
		C975.56,811.06,941.93,777.43,900.44,777.43z M216.2,591.1c-4.14,0-8.35,0.66-12.44-0.46c-0.63-0.17-1.27-0.32-1.93-0.39
		c-13.79-1.52-21.94-9.09-22.83-21.71c-0.42-5.94-0.15-11.93-0.15-17.89c0-137.96-0.01-275.92,0.01-413.88
		c0-21.66,8.16-29.57,30.87-29.57c211.32-0.05,422.65-0.04,633.97-0.03c0.93,0,1.86,0.09,2.79,0.17c0.38,0.03,0.76,0.04,1.14,0.05
		c15.76,0.26,23.18,6.18,25.34,20.27c0.74,4.87,0.59,9.8,0.59,14.71c0.04,137.51,0.06,275.02-0.01,412.54
		c-0.01,30.97-5.72,36.23-38.47,36.23C628.79,591.14,422.5,591.15,216.2,591.1z M721.4,909.34c-3.87,1.87-8.04,1.66-12.16,1.66
		c-172.11,0.01-344.22,0.01-516.33,0c-1.59,0-3.18,0.04-4.76-0.07c-10.07-0.7-16.8-6.76-16.58-14.89
		c0.23-8.6,6.35-13.77,17.03-13.78c58.42-0.08,116.85-0.05,175.28-0.05h87.65c85.1,0,170.2,0,255.31,0.01
		c3.49,0,6.99-0.03,10.47,0.14c7.52,0.35,11.65,4.87,12.88,11.79C731.47,901.37,727.78,906.27,721.4,909.34z M865.1,939.33
		c-23.6-0.23-42.6-19.63-42.49-43.39c0.1-23.98,18.97-42.58,43.07-42.46c23.73,0.12,42.96,19.48,42.74,43.06
		C908.21,920.04,888.45,939.55,865.1,939.33z"/>
	<path class="st0" d="M722.58,354.65c14.56,0,29.12-0.06,43.68,0.02c13.21,0.07,17.91,4.62,17.98,17.5
		c0.09,16.24,0.1,32.48-0.01,48.73c-0.07,11.7-4.59,16.86-15.99,16.96c-30.51,0.27-61.03,0.25-91.55,0.01
		c-11.38-0.09-16.33-5.26-16.5-16.68c-0.24-16.52-0.22-33.04-0.02-49.56c0.15-11.9,5.2-16.83,17.05-16.93
		C692.34,354.55,707.46,354.65,722.58,354.65z"/>
	<path class="st0" d="M721.7,220.01c12.32,0,24.64-0.13,36.95,0.04c9.33,0.13,14.68,4.64,15.2,12.25
		c0.52,7.68-4.23,13.55-13.6,13.75c-25.74,0.54-51.5,0.51-77.23-0.02c-9.35-0.19-13.81-5.79-13.44-13.79
		c0.35-7.56,5.67-12.04,15.17-12.18C697.06,219.87,709.38,220.01,721.7,220.01z"/>
	<path class="st0" d="M722.21,275.46c12.03,0,24.07-0.12,36.1,0.04c9.73,0.12,15.32,4.85,15.58,12.73
		c0.25,7.57-4.63,13.17-14.09,13.37c-25.17,0.53-50.36,0.54-75.53,0.07c-10.06-0.19-14.89-5.58-14.69-13.68
		c0.2-7.87,5.66-12.37,15.7-12.49C697.58,275.35,709.89,275.46,722.21,275.46z"/>
	<path class="st0" d="M452.4,263.63h83.22v-83.22h-74.06c-5.06,0-9.17,4.1-9.17,9.17V263.63z"/>
	<path class="st0" d="M337.73,263.63h-83.22v-83.22h74.06c5.06,0,9.17,4.1,9.17,9.17V263.63z"/>
	<rect x="352.19" y="180.41" class="st0" width="83.22" height="83.22"/>
	<path class="st0" d="M337.73,473.76h-83.22v-83.22h74.06c5.06,0,9.17,4.1,9.17,9.17V473.76z"/>
	<path class="st0" d="M450.48,475.68h83.22v-83.22h-74.06c-5.06,0-9.17,4.1-9.17,9.17V475.68z"/>
	
		<rect x="352.8" y="392.45" transform="matrix(-1 -4.489354e-11 4.489354e-11 -1 788.8244 868.1278)" class="st0" width="83.22" height="83.22"/>
	<path class="st0" d="M337.73,368.7h-76.5c-3.71,0-6.72-3.01-6.72-6.72v-69.78c0-3.71,3.01-6.72,6.72-6.72h76.5V368.7z"/>
	<path class="st0" d="M452.4,368.7h77.06c3.4,0,6.16-2.76,6.16-6.16v-70.9c0-3.4-2.76-6.16-6.16-6.16H452.4V368.7z"/>
	<rect x="352.19" y="285.47" class="st0" width="83.22" height="83.22"/>
</g>
<circle class="st0" cx="-238.43" cy="-1095.57" r="596.57"/>
<circle class="st1" cx="1080" cy="-1095.57" r="596.57"/>
<g>
	<path class="st0" d="M1144.52-1004.23c-0.95-0.5-1.81-1.19-2.58-2.09c-59.67-0.04-119.33-0.09-179-0.14
		c2.72-4.58,7.39-3.51,11.4-3.56c21.59-0.28,43.18-0.12,64.77-0.13c30.03-0.01,60.06-0.07,90.09,0.06c4.41,0.01,8.98-0.6,13.07,1.85
		c0.52,0.62,0.96,1.25,1.32,1.9C1143.98-1005.65,1144.28-1004.95,1144.52-1004.23z"/>
	<path class="st0" d="M1188.06-1006.48c-1.85,2.24-4.24,3.25-7.11,3.37c-10.61,0.44-21.22,0.41-31.82,0.02
		c-1.69-0.06-3.23-0.41-4.61-1.15c-0.95-0.5-1.81-1.19-2.58-2.09c0.55,0,1.1-0.01,1.66-0.01
		C1158.42-1006.38,1173.24-1006.42,1188.06-1006.48z"/>
	<path class="st0" d="M1335-927.6h-133.75c-7.41,0-13.4-6.01-13.38-13.42c0.05-17.38,0.1-34.76,0.16-52.15
		c0.02-7.36,5.99-13.33,13.36-13.34c40.77-0.08,81.54-0.16,122.31-0.24c13.89,0.08,27.78,0.33,41.66,0.17
		c7.75-0.08,12.8-5.16,13.63-12.93c0.26-2.46,0.25-4.96,0.25-7.44c0.01-135.72,0.01-271.45,0-407.17c0-2.48-0.01-4.97-0.22-7.44
		c-0.46-5.56-2.73-9.81-8.06-11.7c-0.69-0.24-1.34-0.6-1.97-0.97c-2.38-1.41-5.13-0.82-7.71-0.82c-26.32,0.04-52.63,0.22-78.95,0.23
		c-163.38,0.02-326.75,0.01-490.13,0.01c-16.38,0-20.33,3.88-20.33,20.09c-0.01,136.09-0.01,272.19,0,408.28
		c0,15.81,4.05,19.87,19.75,19.88c52.64,0.03,105.28,0.05,157.92,0.07c7.4,0,13.39,6.01,13.37,13.41
		c-0.04,17.37-0.08,34.74-0.12,52.11c-0.02,7.38-6,13.35-13.38,13.35H825c-29.34,0-53.13,23.79-53.13,53.13v85.35
		c0,29.35,23.79,53.14,53.14,53.14H1335c29.35,0,53.14-23.79,53.14-53.14v-85.34C1388.14-903.81,1364.35-927.6,1335-927.6z
		 M850.93-1059.42c-2.93,0-5.91,0.47-8.8-0.32c-0.45-0.12-0.9-0.22-1.36-0.28c-9.76-1.07-15.52-6.43-16.15-15.36
		c-0.3-4.2-0.11-8.44-0.11-12.66c0-97.6-0.01-195.2,0.01-292.8c0-15.32,5.77-20.92,21.84-20.92c149.5-0.04,299.01-0.03,448.5-0.02
		c0.66,0,1.32,0.06,1.98,0.12c0.27,0.02,0.54,0.03,0.81,0.04c11.15,0.18,16.4,4.37,17.92,14.34c0.52,3.45,0.42,6.93,0.42,10.41
		c0.03,97.28,0.04,194.56-0.01,291.85c-0.01,21.91-4.05,25.63-27.22,25.63C1142.81-1059.39,996.87-1059.39,850.93-1059.42z
		 M1208.33-834.28c-2.74,1.32-5.69,1.17-8.6,1.17c-121.76,0.01-243.52,0.01-365.28,0c-1.12,0-2.25,0.03-3.37-0.05
		c-7.12-0.5-11.89-4.78-11.73-10.53c0.16-6.08,4.49-9.74,12.05-9.75c41.33-0.06,82.67-0.04,124-0.04h62.01
		c60.2,0,120.41,0,180.62,0.01c2.47,0,4.95-0.02,7.41,0.1c5.32,0.25,8.24,3.45,9.11,8.34
		C1215.46-839.92,1212.85-836.45,1208.33-834.28z M1309.99-813.07c-16.7-0.16-30.14-13.89-30.06-30.7
		c0.07-16.96,13.42-30.12,30.47-30.04c16.79,0.08,30.39,13.78,30.24,30.46C1340.49-826.71,1326.51-812.91,1309.99-813.07z"/>
	<path class="st0" d="M1209.17-1226.7c10.3,0,20.6-0.04,30.9,0.01c9.35,0.05,12.67,3.27,12.72,12.38
		c0.06,11.49,0.07,22.98-0.01,34.47c-0.05,8.28-3.25,11.93-11.31,12c-21.59,0.19-43.18,0.18-64.77,0.01
		c-8.05-0.06-11.55-3.72-11.67-11.8c-0.17-11.69-0.16-23.38-0.01-35.06c0.11-8.42,3.68-11.91,12.06-11.98
		C1187.78-1226.77,1198.47-1226.7,1209.17-1226.7z"/>
	<path class="st0" d="M1208.54-1321.95c8.71,0,17.43-0.09,26.14,0.03c6.6,0.09,10.39,3.28,10.75,8.66c0.37,5.43-2.99,9.59-9.62,9.73
		c-18.21,0.38-36.43,0.36-54.64-0.01c-6.62-0.14-9.77-4.09-9.51-9.76c0.25-5.35,4.01-8.52,10.73-8.62
		C1191.11-1322.05,1199.83-1321.95,1208.54-1321.95z"/>
	<path class="st0" d="M1208.9-1282.72c8.51,0,17.03-0.08,25.54,0.03c6.89,0.09,10.84,3.43,11.02,9.01c0.18,5.35-3.28,9.32-9.97,9.46
		c-17.81,0.37-35.63,0.38-53.44,0.05c-7.11-0.13-10.54-3.95-10.39-9.68c0.14-5.57,4-8.75,11.11-8.84
		C1191.48-1282.8,1200.19-1282.72,1208.9-1282.72z"/>
	<path class="st0" d="M1018.03-1291.09h58.88v-58.88h-49.71c-5.06,0-9.17,4.1-9.17,9.17V-1291.09z"/>
	<path class="st0" d="M936.91-1291.09h-58.88v-58.88h49.71c5.06,0,9.17,4.1,9.17,9.17V-1291.09z"/>
	<rect x="947.13" y="-1349.96" class="st0" width="58.88" height="58.88"/>
	<path class="st0" d="M936.91-1142.43h-58.88v-58.88h49.71c5.06,0,9.17,4.1,9.17,9.17V-1142.43z"/>
	<path class="st0" d="M1016.67-1141.08h58.88v-58.88h-49.71c-5.06,0-9.17,4.1-9.17,9.17V-1141.08z"/>
	
		<rect x="947.57" y="-1199.95" transform="matrix(-1 -4.489044e-11 4.489044e-11 -1 1954.007 -2341.0325)" class="st0" width="58.88" height="58.88"/>
	<path class="st0" d="M936.91-1216.76h-52.16c-3.71,0-6.72-3.01-6.72-6.72v-45.43c0-3.71,3.01-6.72,6.72-6.72h52.16V-1216.76z"/>
	<path class="st0" d="M1018.03-1216.76h52.72c3.4,0,6.16-2.76,6.16-6.16v-46.56c0-3.4-2.76-6.16-6.16-6.16h-52.72V-1216.76z"/>
	<rect x="947.13" y="-1275.64" class="st0" width="58.88" height="58.88"/>
</g>
<g>
	<path class="st1" d="M-173.91-1004.23c-0.95-0.5-1.81-1.19-2.58-2.09c-59.67-0.04-119.33-0.09-179-0.14
		c2.72-4.58,7.39-3.51,11.4-3.56c21.59-0.28,43.18-0.12,64.77-0.13c30.03-0.01,60.06-0.07,90.09,0.06c4.41,0.01,8.98-0.6,13.07,1.85
		c0.52,0.62,0.96,1.25,1.32,1.9C-174.45-1005.65-174.15-1004.95-173.91-1004.23z"/>
	<path class="st1" d="M-130.37-1006.48c-1.85,2.24-4.24,3.25-7.11,3.37c-10.61,0.44-21.22,0.41-31.82,0.02
		c-1.69-0.06-3.23-0.41-4.61-1.15c-0.95-0.5-1.81-1.19-2.58-2.09c0.55,0,1.1-0.01,1.66-0.01
		C-160.01-1006.38-145.19-1006.42-130.37-1006.48z"/>
	<path class="st1" d="M16.57-927.6h-133.75c-7.41,0-13.4-6.01-13.38-13.42c0.05-17.38,0.1-34.76,0.16-52.15
		c0.02-7.36,5.99-13.33,13.36-13.34c40.77-0.08,81.54-0.16,122.31-0.24c13.89,0.08,27.78,0.33,41.66,0.17
		c7.75-0.08,12.8-5.16,13.63-12.93c0.26-2.46,0.25-4.96,0.25-7.44c0.01-135.72,0.01-271.45,0-407.17c0-2.48-0.01-4.97-0.22-7.44
		c-0.46-5.56-2.73-9.81-8.06-11.7c-0.69-0.24-1.34-0.6-1.97-0.97c-2.38-1.41-5.13-0.82-7.71-0.82c-26.32,0.04-52.63,0.22-78.95,0.23
		c-163.38,0.02-326.75,0.01-490.13,0.01c-16.38,0-20.33,3.88-20.33,20.09c-0.01,136.09-0.01,272.19,0,408.28
		c0,15.81,4.05,19.87,19.75,19.88c52.64,0.03,105.28,0.05,157.92,0.07c7.4,0,13.39,6.01,13.37,13.41
		c-0.04,17.37-0.08,34.74-0.12,52.11c-0.02,7.38-6,13.35-13.38,13.35h-124.41c-29.34,0-53.13,23.79-53.13,53.13v85.35
		c0,29.35,23.79,53.14,53.14,53.14H16.57c29.35,0,53.14-23.79,53.14-53.14v-85.34C69.71-903.81,45.92-927.6,16.57-927.6z
		 M-467.5-1059.42c-2.93,0-5.91,0.47-8.8-0.32c-0.45-0.12-0.9-0.22-1.36-0.28c-9.76-1.07-15.52-6.43-16.15-15.36
		c-0.3-4.2-0.11-8.44-0.11-12.66c0-97.6-0.01-195.2,0.01-292.8c0-15.32,5.77-20.92,21.84-20.92c149.5-0.04,299.01-0.03,448.5-0.02
		c0.66,0,1.32,0.06,1.98,0.12c0.27,0.02,0.54,0.03,0.81,0.04c11.15,0.18,16.4,4.37,17.92,14.34c0.52,3.45,0.42,6.93,0.42,10.41
		c0.03,97.28,0.04,194.56-0.01,291.85c-0.01,21.91-4.05,25.63-27.22,25.63C-175.61-1059.39-321.55-1059.39-467.5-1059.42z
		 M-110.1-834.28c-2.74,1.32-5.69,1.17-8.6,1.17c-121.76,0.01-243.52,0.01-365.28,0c-1.12,0-2.25,0.03-3.37-0.05
		c-7.12-0.5-11.89-4.78-11.73-10.53c0.16-6.08,4.49-9.74,12.05-9.75c41.33-0.06,82.67-0.04,124-0.04h62.01
		c60.2,0,120.41,0,180.62,0.01c2.47,0,4.95-0.02,7.41,0.1c5.32,0.25,8.24,3.45,9.11,8.34C-102.97-839.92-105.58-836.45-110.1-834.28
		z M-8.44-813.07c-16.7-0.16-30.14-13.89-30.06-30.7c0.07-16.96,13.42-30.12,30.47-30.04c16.79,0.08,30.39,13.78,30.24,30.46
		C22.06-826.71,8.08-812.91-8.44-813.07z"/>
	<path class="st1" d="M-109.26-1226.7c10.3,0,20.6-0.04,30.9,0.01c9.35,0.05,12.67,3.27,12.72,12.38c0.06,11.49,0.07,22.98,0,34.47
		c-0.05,8.28-3.25,11.93-11.31,12c-21.59,0.19-43.18,0.18-64.77,0.01c-8.05-0.06-11.55-3.72-11.67-11.8
		c-0.17-11.69-0.16-23.38-0.01-35.06c0.11-8.42,3.68-11.91,12.06-11.98C-130.65-1226.77-119.96-1226.7-109.26-1226.7z"/>
	<path class="st1" d="M-109.89-1321.95c8.71,0,17.43-0.09,26.14,0.03c6.6,0.09,10.39,3.28,10.75,8.66c0.37,5.43-2.99,9.59-9.62,9.73
		c-18.21,0.38-36.43,0.36-54.64-0.01c-6.62-0.14-9.77-4.09-9.51-9.76c0.25-5.35,4.01-8.52,10.73-8.62
		C-127.32-1322.05-118.6-1321.95-109.89-1321.95z"/>
	<path class="st1" d="M-109.53-1282.72c8.51,0,17.03-0.08,25.54,0.03c6.89,0.09,10.84,3.43,11.02,9.01
		c0.18,5.35-3.28,9.32-9.97,9.46c-17.81,0.37-35.63,0.38-53.44,0.05c-7.11-0.13-10.54-3.95-10.39-9.68c0.14-5.57,4-8.75,11.11-8.84
		C-126.95-1282.8-118.24-1282.72-109.53-1282.72z"/>
	<path class="st1" d="M-300.4-1291.09h58.88v-58.88h-49.71c-5.06,0-9.17,4.1-9.17,9.17V-1291.09z"/>
	<path class="st1" d="M-381.52-1291.09h-58.88v-58.88h49.71c5.06,0,9.17,4.1,9.17,9.17V-1291.09z"/>
	<rect x="-371.29" y="-1349.96" class="st1" width="58.88" height="58.88"/>
	<path class="st1" d="M-381.52-1142.43h-58.88v-58.88h49.71c5.06,0,9.17,4.1,9.17,9.17V-1142.43z"/>
	<path class="st1" d="M-301.76-1141.08h58.88v-58.88h-49.71c-5.06,0-9.17,4.1-9.17,9.17V-1141.08z"/>
	
		<rect x="-370.86" y="-1199.95" transform="matrix(-1 -4.489044e-11 4.489044e-11 -1 -682.8502 -2341.0325)" class="st1" width="58.88" height="58.88"/>
	<path class="st1" d="M-381.52-1216.76h-52.16c-3.71,0-6.72-3.01-6.72-6.72v-45.43c0-3.71,3.01-6.72,6.72-6.72h52.16V-1216.76z"/>
	<path class="st1" d="M-300.4-1216.76h52.72c3.4,0,6.16-2.76,6.16-6.16v-46.56c0-3.4-2.76-6.16-6.16-6.16h-52.72V-1216.76z"/>
	<rect x="-371.29" y="-1275.64" class="st1" width="58.88" height="58.88"/>
</g>
</svg>
