<svg id="Layer_1" data-name="Layer 1" xmlns="http://www.w3.org/2000/svg" viewBox="0 0 1080 1080"><defs><style>.cls-1{fill:#d81324;}</style></defs><path class="cls-1" d="M996.89,1079.21V309.71H83.55v769.51H.25v-12.83Q.25,650.54,0,234.7c0-9.62,3-13.32,11.09-16.69Q271,110,530.72,1.69a26.91,26.91,0,0,1,18.9.05q258.9,107.37,517.6,215.34c9,3.76,12.8,8,12.78,19.22q-.62,414.66-.32,829.32v13.59ZM540,237.89c37.46,0,74.91.09,112.37,0,12.31,0,17.18-5,17.48-17.7q.42-17.73,0-35.47c-.3-12.28-5-17.44-16.46-17.45q-113.49-.16-227,0c-11.37,0-16,5.2-16.34,17.55-.26,10.64-.12,21.29-.05,31.93.09,16.7,4.22,21.15,19.86,21.17Q484.94,238,540,237.89Z"/><path class="cls-1" d="M410.6,807h85.82V917.15H583v-110h86.45c.18,4.13.51,8.3.52,12.47q0,117.07,0,234.14c0,20.46-5.41,26.24-24.58,26.25q-105.61.06-211.25,0c-18.56,0-24.17-5.92-24.18-25.46q-.06-118.25,0-236.5C410,814.56,410.36,811.12,410.6,807Z"/><path class="cls-1" d="M128.7,807h85V917h87.57V807H387c.19,4.47.49,8.31.49,12.16q0,117.72,0,235.46c0,19.82-5.21,25.32-24,25.33q-105.69.06-211.38,0c-18.74,0-23.89-5.54-23.9-25.43q0-117.74,0-235.47C128.18,815.24,128.5,811.4,128.7,807Z"/><path class="cls-1" d="M692.47,806.84h85.82V917.16h87.14V807.25h85.82c.17,4.07.5,8.23.5,12.4q0,117.14,0,234.28c0,20.64-5,26-24.46,26q-105.13,0-210.26,0c-19.55,0-24.55-5.29-24.56-25.91q0-117.13,0-234.28Z"/><path class="cls-1" d="M904.18,621.65v16.92q0,69.63,0,139.24c0,12.71-3.1,16-15,16q-67.23,0-134.45,0c-11.26,0-14.62-3.39-14.63-14.89q0-75.23,0-150.47c0-2.18.19-4.36.31-6.93h53.94v69.53h55.08V621.65Z"/><path class="cls-1" d="M339.87,621.65v16.92q0,69.63,0,139.24c0,12.71-3.1,16-15,16q-67.22,0-134.44,0c-11.26,0-14.63-3.39-14.64-14.89q0-75.23,0-150.47c0-2.18.19-4.36.31-6.93H230v69.53H285.1V621.65Z"/><path class="cls-1" d="M528.13,353.13h23.58a20.53,20.53,0,0,0,2.84.6A187.24,187.24,0,0,1,634,378.25c65.9,37.5,103.58,113.88,92.9,188.7-6.38,44.79-25.86,83-59.3,113.45-43.46,39.58-94.91,55.54-153.16,48.22-37.51-4.72-70.6-20.1-98.94-45.17C382.58,654.31,362,618,354.21,574.66c-1.25-7-2-14.06-2.93-21.09V530c.54-4.48,1-9,1.64-13.45,5.4-38.36,20.82-72.17,46.83-100.88,29.14-32.16,65.16-52.24,108-59.67C514.53,354.81,521.35,354.07,528.13,353.13ZM538.3,670.82v0c2.83,0,5.65.05,8.48,0,5.59-.12,7.89-2.21,8.12-7.72.22-5.27.23-10.56.2-15.84,0-6.73,1.53-9,7.9-11,1.06-.33,2.13-.61,3.17-1,24.84-8.28,41.67-30.94,40.61-55.81-1-22.92-12.41-39.71-32.54-50.3-9.41-4.95-19.52-8.58-29.1-13.25-6.46-3.16-13.1-6.38-18.66-10.84-9.35-7.5-7.45-20.12,3.48-25.14a35.77,35.77,0,0,1,12.42-2.83A78.28,78.28,0,0,1,581.63,485c6.19,2.94,8.25,2,10.34-4.48,2-6.31,3.76-12.7,5.58-19.06,2.08-7.29,1.11-10-6.08-12.41-8.81-2.92-17.84-5.24-26.88-7.37-6.41-1.52-7.6-2.47-7.75-9-.09-4.05,0-8.12-.34-12.15-.49-6-2.15-7.5-8.09-7.68-5.4-.16-10.81-.17-16.21-.06-6,.13-7.59,1.75-7.77,7.77-.15,5.28-.18,10.56-.21,15.84,0,3.91-1.8,6.38-5.55,7.71-4.15,1.48-8.28,3.09-12.26,5-26.19,12.42-38.57,42-28.4,67.89,5.11,13,14.81,22,26.79,28.28,11.26,5.89,23.3,10.3,34.76,15.84,5.57,2.69,11.27,5.76,15.76,9.91,9.31,8.59,7.18,22.34-3.91,28.52a39.19,39.19,0,0,1-8.89,3.41c-10.72,2.87-21.3,1-31.57-2-7.73-2.25-15.12-5.65-22.63-8.62-4.25-1.67-6.33-1.25-7.59,2.73-2.66,8.4-5,16.92-7.28,25.43-1,3.54.44,6.3,3.61,8,2.58,1.41,5.13,3.07,7.91,3.86,9.29,2.66,18.61,5.29,28,7.34,8,1.74,8.53,1.88,8.67,10.22.07,4.3,0,8.6.2,12.89.3,5.76,2.6,7.89,8.32,8C532.9,670.86,535.6,670.82,538.3,670.82Z"/></svg>