<svg id="Layer_1" data-name="Layer 1" xmlns="http://www.w3.org/2000/svg" viewBox="0 0 1080 1080"><defs><style>.cls-1{fill:#d81324;}</style></defs><path class="cls-1" d="M357.12,161.54V90.67H200.74c-.21,3.09-.61,6.22-.61,9.34,0,47,.08,94-.16,141.06,0,6.46,1.36,10.16,7.64,13.49,22,11.63,31.92,35.77,25.55,59.34a52.34,52.34,0,0,1-101.24-.37c-6.23-23.6,4.12-46.93,25.72-59.58,3.3-1.93,7.1-6.55,7.13-10,.45-49.57.3-99.14.26-148.71a42.91,42.91,0,0,0-.61-4.87H113.35V55.26h51.5V20.91h34.78V54.25H357.31V20.78h34.78v34h87.49V89.58H393.44v71.57c62.4,19.86,94.58,65.18,85.35,120-9,53.7-53.48,90.42-107.7,89-51.62-1.38-95.16-42.15-100.47-94.86C265.77,227.22,295.56,174.7,357.12,161.54Z"/><path class="cls-1" d="M504.53,714.06V817.7H207.89V714.06ZM382,748.85H313.1v33.67H382Z"/><path class="cls-1" d="M504.21,957.85H208V854.17H504.21ZM382,889.06H313.29v33.69H382Z"/><path class="cls-1" d="M871.87,940.34H628.14V784.15H871.87Zm-87.29-105v-34H715.81v34Z"/><path class="cls-1" d="M949.41,225.22c-7-6.62-15.52-9.42-25-9.42q-165.58,0-331.17,0c-21.18,0-35.27,14.48-35.28,35.69q0,115,0,229.94c0,21.49,14.08,35.67,35.57,35.71q54.93.11,109.87,0h5.25c-.25,3.75-.31,7.22-.75,10.64-1.49,11.42-3.06,22.84-10.31,32.45A16.78,16.78,0,0,1,685,567.33c-6.28.53-9.52,3.37-9.77,8.14a8,8,0,0,0,6.32,8.29,21.36,21.36,0,0,0,4.65.5q72.59,0,145.18,0c6.69,0,10.12-2.3,10.87-7.17a7.88,7.88,0,0,0-6-9.14c-2.15-.51-4.42-.54-6.56-1.09-7.34-1.88-11.06-7.61-13.87-13.92-5-11.18-5.93-23.17-6.8-35.76h4.88q55.13,0,110.26,0c14.52,0,25.48-6,32.14-19,1.63-3.18,2.35-6.83,3.49-10.27V245.41C958.09,237.77,955.25,230.72,949.41,225.22ZM758.7,500.49a16.76,16.76,0,1,1,16.84-16.87A16.69,16.69,0,0,1,758.7,500.49Z"/><path class="cls-1" d="M906.83,590.55h-244v.58H85.36v34.13l17.38,1.08v436.45h875.1V626.2l16.8-1V590.55Zm-59.69,70.28a26.19,26.19,0,1,1-26.94,25.72A26.44,26.44,0,0,1,847.14,660.83Zm-88.95,0A26.19,26.19,0,1,1,732.66,688,26.42,26.42,0,0,1,758.19,660.83Zm-219,331.74H172.86V678.83h366.3Zm367.67-17.48H593.18V748.82H906.83Z"/></svg>