<svg id="Layer_1" data-name="Layer 1" xmlns="http://www.w3.org/2000/svg" viewBox="0 0 1080 1080"><defs><style>.cls-1{fill:#d81324;}.cls-2{fill:#fff;}</style></defs><path class="cls-1" d="M168.65,139.79v50.94H98.47V812.35h883V191.17h-70V138.68h40.68c14.58,0,29.16.12,43.73,0,22.2-.2,36.77,13.09,36.87,35.4.26,58.69-.12,117.39-.13,176.08q0,94.55.13,189.07,0,93.94,0,187.91,0,49.64-.28,99.27c-.12,25.93-12.15,38.46-38.23,38.53-88.27.23-176.54.11-264.8.12H647V995.22c9.54,0,19.6-.15,29.67,0,10.61.21,21.38-.31,31.8,1.33,24.15,3.79,39.92,19.26,43.34,43.32,1.68,11.84.29,24.13.29,36.82H328.58c0-13.51-1.84-27,.39-39.83,4.37-25,25.75-41.36,51.55-41.65,17.29-.2,34.57,0,52.73,0V865.51c-4.31-.19-8.53-.56-12.76-.56q-168.45,0-336.9.18c-21.47,0-36.17-13.2-36.29-34.8-.34-59.48,0-119,.05-178.44q.09-94,.11-187.91,0-65.58,0-131.17c0-51.2.88-102.43-.27-153.61-.59-26,15.66-41.71,40.26-40.74,26,1,52,.32,78,.4A16.15,16.15,0,0,1,168.65,139.79Z"/><path class="cls-2" d="M437.68,432.51l.54-.22s-.19,0-.21,0A1.84,1.84,0,0,1,437.68,432.51Z"/><path class="cls-1" d="M412.83,105.54c-27.54,0-55.09-.08-82.63,0-9.46,0-14.71,5.14-14.76,14.58-.13,26.75-.13,53.51.15,80.27.14,12.34,4.83,16.6,17.49,16.75,13,.15,26,0,39,0,13.37,0,26.75,0,40.13,0,8.9,0,15.08-4.56,15.21-13.09.45-28.68.15-57.38-.39-86.07C426.83,109.67,421.21,105.55,412.83,105.54Zm-53.3,93.32L326.38,167l14.42-12.95,16.56,21.5,43.9-46.65,14.36,13.51Z"/><path class="cls-1" d="M270.72,11.71V692.79h528.6V11.71ZM516.26,410.33c41.73-.37,83.47-.23,125.21-.23V410c41.34,0,82.68-.14,124,.25,3.67,0,7.3,3.55,11,5.46-3.56,2.12-7.12,6.09-10.68,6.1q-124.66.51-249.31,0c-3.89,0-7.76-4.16-11.63-6.38C508.63,413.63,512.43,410.36,516.26,410.33Zm-11.64-50.57c4-2,8-5.83,12-5.84q124.48-.54,249-.05c3.62,0,7.23,3.6,10.85,5.52-3.54,2.07-7.07,5.92-10.63,5.95-42.09.42-84.18.27-126.27.27v0c-40.9,0-81.82.17-122.72-.26C512.71,365.35,508.67,361.72,504.62,359.76ZM765.76,223.63q-124.66.51-249.31,0c-3.89,0-7.76-4.16-11.63-6.39,3.81-1.76,7.61-5,11.44-5.06,41.73-.36,83.47-.23,125.21-.23v-.1c41.34,0,82.68-.14,124,.25,3.67,0,7.3,3.56,11,5.46C772.88,219.65,769.32,223.61,765.76,223.63Zm0-56.47c-42.09.42-84.18.27-126.27.27v0c-40.9,0-81.82.17-122.72-.25-4.07,0-8.11-3.67-12.16-5.63,4-2,8-5.83,12-5.85q124.48-.53,249,0c3.62,0,7.23,3.59,10.85,5.51C772.86,163.28,769.33,167.12,765.77,167.16ZM511,99.13c1.9-.95,4.63-.28,7-.28H760.38c2,0,4.19-.58,5.85.14,3.53,1.53,6.75,3.74,10.1,5.67-3.11,2.12-6,5.18-9.38,6.12-4.05,1.11-8.6.44-12.93.44q-56.73,0-113.46,0v0H518.82c-2.75,0-5.85.68-8.16-.36s-4.08-3.87-6.07-5.91C506.7,102.93,508.53,100.37,511,99.13Zm-63.73,499.7c-.41,21.32-14,34.24-35,34.51-13.77.19-27.53,0-41.3,0s-27.53.18-41.29-.06c-20-.35-33.16-13.4-33.31-33.3-.19-27.53-.14-55.06,0-82.59.1-20.57,12.61-34.39,33.3-34.94,27.91-.73,55.87-.79,83.77,0,20.45.59,33.5,14.37,33.89,34.93Q448.07,558.11,447.29,598.83Zm-.06-396.54c-.44,20.63-13.76,33.94-34.26,34.3q-41.94.75-83.9-.06c-20.14-.41-32.19-13.56-32.75-34-.14-5.12-.26-10.25-.28-15.37-.05-8.67,0-17.33,0-26,0-13.4.1-26.79,0-40.18-.15-20,12.14-34.17,32.21-34.68,28.74-.71,57.52-.63,86.26,0,19.25.43,32.5,14,32.85,33.23Q448.1,160.91,447.23,202.29Zm63.79,95c1.9-.95,4.63-.27,7-.27H760.38c2,0,4.19-.57,5.85.15,3.53,1.53,6.75,3.74,10.1,5.67-3.11,2.12-6,5.18-9.38,6.11-4.05,1.11-8.6.45-12.93.45H640.56v-.05H518.82c-2.75,0-5.85.68-8.16-.36s-4.08-3.86-6.07-5.9C506.7,301.12,508.53,298.56,511,297.31ZM762.9,620.42c-61.47.39-122.93.24-184.4.24-20.09,0-40.2.38-60.28-.23-4.59-.14-9.08-3.64-13.62-5.59,4.73-2.24,9.43-6.37,14.18-6.43,40.57-.51,81.16-.29,121.74-.28,41,0,82-.18,122.92.28,4.34.05,8.64,3.94,12.95,6C771.89,616.53,767.41,620.39,762.9,620.42ZM504.65,557.77c2.18-1.84,4.11-4.23,6.61-5.36,2-.88,4.64-.22,7-.22h121.5v-.07q59.57,0,119.14,0c3.93,0,8-.29,11.73.61,2.16.51,5.58,3.53,5.31,4.75a10.86,10.86,0,0,1-5.06,6.59c-2.18,1.14-5.37.39-8.13.39H518.49c-2.36,0-5.16.77-7-.24C508.86,562.75,506.91,560,504.65,557.77ZM767,507.67c-24.38.52-48.77.36-73.15.39q-26.55,0-53.1,0v-.23c-41.3,0-82.6.16-123.89-.26-4.05,0-8.07-3.63-12.11-5.58,4-2,7.9-5.85,11.87-5.87,82.21-.36,164.42-.29,246.63-.3,1.17,0,2.57-.33,3.49.18,3.36,1.84,6.55,4,9.81,6C773.33,504,770.18,507.6,767,507.67Z"/><path class="cls-1" d="M411.05,502.28c-26.34.06-52.67-.13-79,.11-11.67.1-16.42,5-16.5,16.57q-.26,38.92,0,77.84c.05,12.31,4.82,17.12,17.05,17.3,13,.2,25.94,0,38.92,0s25.95.13,38.92,0c11.94-.16,17.25-5.16,17.38-17.28.27-25.93.15-51.87,0-77.81C427.76,508.08,422.29,502.26,411.05,502.28Zm-52.78,94-31.94-32.18,14.23-14.18,17.21,21.27,43.45-45.85,14.13,14.4Z"/></svg>